<svg width="20" height="20" viewBox="0 0 20 20" fill="none" xmlns="http://www.w3.org/2000/svg">
<path d="M11.4819 5.50332C11.4819 7.41633 13.0383 8.97262 14.9512 8.97262C16.8642 8.97262 18.4205 7.41629 18.4205 5.50332V5.07227H11.4819V5.50332Z" fill="black"/>
<path d="M14.9512 0C13.0382 0 11.4819 1.55633 11.4819 3.4693V3.90035H18.4205V3.4693C18.4205 1.55633 16.8642 0 14.9512 0Z" fill="black"/>
<path d="M8.54104 16.0351H10.6114C11.8871 16.0351 12.925 14.9973 12.925 13.7215C12.925 12.4458 11.8871 11.4079 10.6114 11.4079H7.35842L6.14217 5.90601C5.86744 4.66323 4.63291 3.87565 3.39002 4.15038C2.78561 4.28397 2.27021 4.6455 1.93877 5.16827C1.60732 5.69104 1.50021 6.3114 1.63721 6.91503L3.70654 16.0352H7.36916V18.828H2.04994V19.9999H18.0696V18.828H8.54104V16.0351Z" fill="black"/>
</svg>
