<svg width="46" height="40" viewBox="0 0 46 40" fill="none" xmlns="http://www.w3.org/2000/svg">
<g clip-path="url(#clip0_337_201)">
<path d="M11.3768 0.12333L34.3768 0L46 19.8561L34.5821 39.8767L11.5821 40L0 20.1028L11.3768 0.12333Z" fill="#F2F2F2"/>
</g>
<g clip-path="url(#clip1_337_201)">
<path d="M14.9336 15.6001C14.8368 15.6 14.7422 15.6287 14.6617 15.6824C14.5812 15.7362 14.5185 15.8126 14.4815 15.9021C14.4445 15.9915 14.4348 16.0899 14.4538 16.1848C14.4728 16.2797 14.5195 16.3668 14.588 16.4352C14.6566 16.5035 14.7438 16.55 14.8388 16.5687C14.9338 16.5874 15.0321 16.5774 15.1215 16.5402C15.2108 16.5029 15.287 16.44 15.3406 16.3593C15.3941 16.2787 15.4225 16.184 15.4221 16.0872C15.4216 15.9579 15.37 15.8341 15.2784 15.7428C15.1869 15.6515 15.0629 15.6002 14.9336 15.6001Z" fill="black"/>
<path d="M14.9336 28.0667C14.8369 28.0666 14.7423 28.0952 14.6618 28.1489C14.5814 28.2026 14.5187 28.2789 14.4816 28.3683C14.4446 28.4576 14.4349 28.556 14.4537 28.6508C14.4726 28.7457 14.5191 28.8328 14.5875 28.9012C14.6559 28.9696 14.7431 29.0162 14.8379 29.0351C14.9328 29.0539 15.0311 29.0442 15.1205 29.0071C15.2098 28.9701 15.2862 28.9074 15.3399 28.8269C15.3936 28.7465 15.4222 28.6519 15.4221 28.5552C15.422 28.4256 15.3705 28.3014 15.2789 28.2098C15.1873 28.1182 15.0631 28.0667 14.9336 28.0667Z" fill="black"/>
<path d="M32.5701 15.6903H31.8592V13.6749C31.8592 13.5827 31.8222 13.4944 31.7563 13.4292C31.6905 13.364 31.6011 13.3274 31.508 13.3274H29.0223L29.024 11.9635C29.024 11.8714 28.987 11.783 28.9212 11.7178C28.8553 11.6526 28.766 11.616 28.6728 11.616L24.1795 11.6091L23.504 9.6482C23.4804 9.57948 23.4356 9.5198 23.376 9.47755C23.3163 9.43529 23.2448 9.41258 23.1714 9.4126H17.813C17.7396 9.41258 17.668 9.43529 17.6084 9.47755C17.5487 9.5198 17.504 9.57948 17.4803 9.6482L16.8077 11.6007L12.354 11.5969C12.2609 11.5969 12.1716 11.6335 12.1057 11.6987C12.0398 11.7639 12.0028 11.8522 12.0028 11.9444L12 14.3768C12 14.469 12.037 14.5574 12.1029 14.6225C12.1687 14.6877 12.2581 14.7243 12.3512 14.7243H12.7882V29.2146C12.7886 29.6029 12.9448 29.9752 13.2223 30.2498C13.4998 30.5243 13.8761 30.6788 14.2686 30.6793H32.5701C32.9492 30.6787 33.3125 30.5295 33.5806 30.2643C33.8486 29.9991 33.9994 29.6397 34 29.2646V17.1046C33.9994 16.7296 33.8486 16.3702 33.5806 16.1051C33.3125 15.8399 32.9491 15.6908 32.5701 15.6903ZM31.1567 15.6903H27.7772V14.0224H31.1567V15.6903ZM18.0641 10.1076H22.9203L23.4359 11.6049H20.3657L17.5495 11.6018L18.0641 10.1076ZM19.9822 22.6339C19.9493 22.5982 19.9092 22.5696 19.8645 22.5501C19.8198 22.5306 19.7715 22.5206 19.7226 22.5206L18.6155 22.5234L21.0468 19.5422L20.8673 21.6863C20.8633 21.734 20.8694 21.7821 20.8851 21.8275C20.9008 21.8729 20.9259 21.9145 20.9587 21.9498C20.9915 21.9851 21.0313 22.0134 21.0757 22.0327C21.12 22.0521 21.168 22.0621 21.2164 22.0622L22.3734 22.0654L19.8561 25.1521L20.0728 22.9011C20.0774 22.8527 20.0717 22.804 20.0561 22.758C20.0405 22.7119 20.0153 22.6697 19.9822 22.6339ZM17.6054 22.6544C17.5637 22.7054 17.5376 22.767 17.5299 22.8322C17.5221 22.8973 17.5332 22.9632 17.5618 23.0224C17.5904 23.0816 17.6353 23.1315 17.6914 23.1665C17.7474 23.2015 17.8124 23.2201 17.8786 23.2201L19.3356 23.2166L19.1248 25.3981H13.4906V19.3171H20.3271L17.6054 22.6544ZM13.4906 29.2146V26.0931H19.0595L19.0454 26.2373C19.0382 26.3117 19.0555 26.3864 19.0946 26.4504C19.1337 26.5143 19.1926 26.5641 19.2625 26.5923C19.3325 26.6205 19.4097 26.6256 19.4829 26.6069C19.556 26.5882 19.6211 26.5467 19.6685 26.4885L19.991 26.0931H24.3357V25.3981H20.5575L23.379 21.9385C23.4206 21.8876 23.4467 21.826 23.4545 21.761C23.4622 21.696 23.4512 21.6301 23.4228 21.5709C23.3943 21.5118 23.3496 21.4618 23.2937 21.4268C23.2378 21.3917 23.173 21.373 23.1068 21.3728L21.5982 21.3683L21.77 19.316H24.3357V18.6211H21.8279L21.8402 18.4727C21.8464 18.3986 21.8284 18.3245 21.7889 18.2613C21.7493 18.1981 21.6904 18.1491 21.6206 18.1215C21.5509 18.0939 21.474 18.0891 21.4013 18.1079C21.3286 18.1267 21.2639 18.1681 21.2168 18.226L20.8943 18.6211H13.4906V14.7316H20.5596L26.4221 14.7382V14.7316V14.0432V14.0366H20.5849L12.7053 14.0293L12.7074 12.2919L17.0276 12.2971C17.0385 12.2971 17.049 12.3009 17.0599 12.3009H20.3685L28.3237 12.31V13.3271H27.4259C27.3328 13.3271 27.2434 13.3637 27.1776 13.4288C27.1117 13.494 27.0747 13.5824 27.0747 13.6745V15.69H26.3634C25.9844 15.6904 25.6211 15.8396 25.3531 16.1047C25.0851 16.3699 24.9344 16.7293 24.9339 17.1043V29.2632C24.9351 29.5171 25.006 29.7658 25.139 29.9829H14.2686C14.0626 29.9827 13.865 29.9018 13.7192 29.7577C13.5734 29.6137 13.4912 29.4184 13.4906 29.2146ZM33.2975 29.2646C33.2973 29.4554 33.2206 29.6384 33.0843 29.7733C32.9479 29.9082 32.763 29.9841 32.5701 29.9843H26.3634C26.1706 29.984 25.9858 29.9081 25.8495 29.7732C25.7132 29.6383 25.6366 29.4554 25.6364 29.2646V17.1046C25.6366 16.9139 25.7132 16.731 25.8495 16.5962C25.9858 16.4613 26.1707 16.3855 26.3634 16.3853H32.5701C32.763 16.3854 32.9479 16.4612 33.0842 16.5961C33.2206 16.7309 33.2973 16.9138 33.2975 17.1046V29.2646Z" fill="black"/>
<path d="M31.6999 18.0444H27.2557C27.1643 18.0444 27.0767 18.0811 27.012 18.1464C26.9474 18.2116 26.9111 18.3001 26.9111 18.3924V28.2076C26.9111 28.2999 26.9474 28.3884 27.012 28.4536C27.0767 28.5189 27.1643 28.5555 27.2557 28.5555H31.6999C31.7913 28.5555 31.8789 28.5189 31.9436 28.4536C32.0082 28.3884 32.0445 28.2999 32.0445 28.2076V18.3924C32.0445 18.3001 32.0082 18.2116 31.9436 18.1464C31.8789 18.0811 31.7913 18.0444 31.6999 18.0444ZM31.3554 18.7404V22.7349H27.6002V18.7404H31.3554ZM27.6002 27.8596V23.4308H31.3554V27.8596H27.6002Z" fill="black"/>
</g>
<defs>
<clipPath id="clip0_337_201">
<rect width="46" height="40" fill="white"/>
</clipPath>
<clipPath id="clip1_337_201">
<rect width="22" height="22" fill="white" transform="translate(12 9)"/>
</clipPath>
</defs>
</svg>
