<svg width="100" height="100" viewBox="0 0 100 100" fill="none" xmlns="http://www.w3.org/2000/svg">
<path d="M38.5901 35.1675L50.0163 29.16L61.4438 35.1675L59.2613 22.4438L68.5051 13.4325L55.7301 11.5763L50.0163 0L44.3038 11.5763L31.5288 13.4325L40.7726 22.4438L38.5901 35.1675Z" fill="white"/>
<path d="M9.93385 45.8813L16.8963 42.2213L23.8588 45.8813L22.5288 38.1288L28.1626 32.6375L20.3776 31.5075L16.8963 24.4525L13.4151 31.5075L5.63135 32.6375L11.2638 38.1288L9.93385 45.8813Z" fill="white"/>
<path d="M76.1389 45.8813L83.1014 42.2213L90.0639 45.8813L88.7339 38.1288L94.3676 32.6375L86.5826 31.5075L83.1014 24.4525L79.6201 31.5075L71.8364 32.6375L77.4689 38.1288L76.1389 45.8813Z" fill="white"/>
<path d="M72.6713 68.6063C72.6713 74.3538 77.3601 79.0263 83.1076 79.0263C88.8551 79.0263 93.5276 74.3538 93.5276 68.6063C93.5276 62.8588 88.8551 58.17 83.1076 58.17C77.3601 58.17 72.6713 62.8588 72.6713 68.6063Z" fill="white"/>
<path d="M90.4701 78.1849C88.4201 79.7649 85.8826 80.7062 83.1089 80.7062C80.3351 80.7062 77.7814 79.7649 75.7476 78.1849C73.7976 78.7062 72.0339 79.6474 70.6051 80.9912C70.9751 82.3362 71.1764 83.7312 71.1764 85.1587V99.9999H91.9488V90.2349C91.9488 89.7649 92.3351 89.3949 92.7889 89.3949C93.2589 89.3949 93.6289 89.7649 93.6289 90.2349V99.9999H99.5776V89.8662C99.5789 84.3874 95.7639 79.5462 90.4701 78.1849Z" fill="white"/>
<path d="M50.0001 72.5725C56.8409 72.5725 62.3864 67.027 62.3864 60.1863C62.3864 53.3456 56.8409 47.8 50.0001 47.8C43.1594 47.8 37.6139 53.3456 37.6139 60.1863C37.6139 67.027 43.1594 72.5725 50.0001 72.5725Z" fill="white"/>
<path d="M58.6389 71.2613C56.2526 73.1438 53.2614 74.2525 50.0001 74.2525C46.7389 74.2525 43.7476 73.1263 41.3614 71.2613C35.0589 72.8575 30.5214 78.6388 30.5214 85.16V100H37.7814V85.5975C37.7814 85.1275 38.1514 84.7575 38.6214 84.7575C39.0914 84.7575 39.4614 85.1275 39.4614 85.5975V100H60.5364V85.5975C60.5364 85.1275 60.9226 84.7575 61.3764 84.7575C61.8464 84.7575 62.2164 85.1275 62.2164 85.5975V100H69.4939V85.16C69.4951 78.6388 64.9576 72.8575 58.6389 71.2613Z" fill="white"/>
<path d="M6.47137 68.6063C6.47137 74.3538 11.1439 79.0263 16.8914 79.0263C22.6389 79.0263 27.3276 74.3538 27.3276 68.6063C27.3276 62.8588 22.6389 58.17 16.8914 58.17C11.1439 58.1688 6.47137 62.8588 6.47137 68.6063Z" fill="white"/>
<path d="M16.8913 80.7062C14.1188 80.7062 11.5638 79.7649 9.53008 78.1849C4.23633 79.5462 0.421326 84.3862 0.421326 89.8649V99.9999H6.35383V90.2349C6.35383 89.7649 6.74008 89.3949 7.19383 89.3949C7.66383 89.3949 8.03383 89.7649 8.03383 90.2349V99.9999H28.8401V85.1599C28.8401 83.7312 29.0413 82.3362 29.4113 81.0087C27.9826 79.6637 26.2013 78.7062 24.2513 78.1849C22.2188 79.7649 19.6651 80.7062 16.8913 80.7062Z" fill="white"/>
</svg>
