<svg width="100" height="100" viewBox="0 0 100 100" fill="none" xmlns="http://www.w3.org/2000/svg">
<path d="M30.9872 8.54339C30.2443 7.24732 32.2033 6.11105 32.947 7.40689L39.2714 18.4102C39.5839 18.9535 39.3986 19.649 38.8582 19.9629C38.3208 20.2725 37.627 20.0957 37.3125 19.5467L30.9872 8.54339ZM18.2027 22.2198L29.1545 28.573C29.6926 28.8828 30.3864 28.7055 30.7001 28.1568C31.0126 27.6115 30.8272 26.9181 30.286 26.6042L19.3341 20.2514C18.0443 19.5042 16.912 21.4724 18.2027 22.2198ZM51.1313 15.8256V3.12206C51.1313 1.62552 48.8685 1.62643 48.8685 3.12206V15.8256C48.8685 17.3224 51.1313 17.3233 51.1313 15.8256ZM70.2796 28.7251C70.4724 28.7251 70.6663 28.6753 70.8453 28.573L81.8003 22.2198C83.0888 21.4724 81.9587 19.5033 80.6678 20.2516L69.7139 26.6044C68.7099 27.1863 69.136 28.7251 70.2796 28.7251ZM26.0733 39.8055L18.0676 35.164C16.7948 34.4262 15.1424 34.8656 14.4052 36.1489L0.35805 60.5925C-0.379858 61.8765 0.0595831 63.5287 1.33808 64.2704L9.34373 68.9144C10.6177 69.6533 12.2682 69.2115 13.0061 67.9277L27.0555 43.4836C27.7901 42.2053 27.3479 40.5444 26.0733 39.8055ZM61.7082 20.115C62.097 20.115 62.4794 19.9104 62.688 19.5467L69.0124 8.54316C69.7571 7.24823 67.7982 6.11037 67.0526 7.40666L60.728 18.41C60.2897 19.1731 60.8466 20.115 61.7082 20.115ZM46.1251 89.8498L44.0412 92.8274C41.5691 96.3703 46.8829 100.11 49.3525 96.5811L51.4364 93.6037C53.9069 90.073 48.599 86.316 46.1251 89.8498ZM53.2491 45.9094C48.8753 44.942 46.2909 45.3059 42.8342 48.1551C41.231 49.4764 39.409 51.3132 37.9178 52.7886L35.5586 55.1139L35.0958 64.8853C35.0657 65.5224 35.1436 66.3775 35.7353 66.7509C36.7733 67.4058 38.7964 66.5398 39.7308 66.0329C41.7089 64.9598 43.1662 60.8418 44.3388 58.6195C44.4318 58.4431 44.582 58.3015 44.7624 58.2179C48.1399 56.652 51.6873 54.5697 55.3683 56.7104L77.3267 69.4806L83.8509 66.1329L72.005 45.5187C65.6383 47.4309 59.6724 47.33 53.2491 45.9094ZM76.8368 71.3188L54.4511 58.3013C51.6439 56.6688 48.5952 58.4268 45.8789 59.7226C45.2942 60.1306 43.6794 65.9774 40.5986 67.649C38.9544 68.5409 36.5092 69.4088 34.7598 68.3043C33.5589 67.5463 33.2048 66.1509 33.2688 64.7989L33.7488 54.6634C33.7599 54.4302 33.8596 54.2088 34.0264 54.046L38.7437 49.4059L27.9829 45.5443L15.9795 66.4268L23.3189 75.632L25.8415 72.0332C27.6038 69.5185 30.6064 69.2101 32.8912 70.8226C33.978 71.5895 34.5303 72.4612 34.9646 73.6722L35.2042 73.4601C38.701 70.365 44.2252 73.7827 43.5405 78.1152L43.4963 78.3937L43.7758 78.3666C47.6027 77.9961 51.2438 82.283 48.6395 86.2555L48.427 86.5797L48.8131 86.5937C52.2822 86.7192 55.1576 90.406 53.3733 93.9273L53.2803 94.1112L58.6647 97.2586C62.3774 99.4287 65.6277 93.8025 61.9572 91.6368L55.9054 88.0966C54.8657 87.4886 55.7887 85.9034 56.8246 86.5096L64.7425 91.14C68.4539 93.3095 71.7081 87.6827 68.0347 85.5179L60.6205 81.1822C59.5834 80.5758 60.4981 78.9863 61.5399 79.5952L71.2997 85.3029C75.015 87.4798 78.2864 81.838 74.5683 79.6638L72.6033 78.516L65.3358 74.2652C64.2987 73.6586 65.2158 72.0691 66.2581 72.6787L73.5763 76.9585C77.288 79.1285 80.5551 73.4808 76.8368 71.3188ZM99.6418 60.5925L85.5944 36.1489C84.8563 34.8644 83.2051 34.4267 81.9332 35.164L73.9275 39.8055C72.6517 40.5451 72.2114 42.2065 72.9454 43.4834L86.9949 67.9274C87.7323 69.2106 89.3812 69.6538 90.6561 68.9142L98.6618 64.2702C99.9405 63.5287 100.38 61.8765 99.6418 60.5925ZM47.0343 85.3597C49.5069 81.8302 44.1955 78.0718 41.7232 81.6036L35.9125 89.9046C33.4421 93.4339 38.7523 97.1884 41.2256 93.6557L44.6434 88.7722L47.0343 85.3597ZM32.6502 76.8403C35.1175 73.3208 29.8135 69.5538 27.337 73.0887L23.178 79.0258C20.7067 82.5535 26.0126 86.3153 28.489 82.7794L32.6502 76.8403ZM35.8005 75.5322L29.9843 83.838L28.7513 85.597C26.2742 89.1311 31.5912 92.889 34.0644 89.3509L41.1122 79.2863C43.5857 75.7591 38.2762 71.9963 35.8005 75.5322Z" fill="black"/>
</svg>
