<svg width="100" height="100" viewBox="0 0 100 100" fill="none" xmlns="http://www.w3.org/2000/svg">
<path d="M56.7129 76.791L53.8516 95.1113C53.4082 97.9434 51.0059 100 48.1406 100H21.0801V71.9688L30.0156 61.8926V49.4141H30.3223C34.8535 49.4141 38.5391 53.0996 38.5391 57.6309V70.1172H51.002C52.6934 70.1172 54.2949 70.8555 55.3945 72.1406C56.4941 73.4238 56.9746 75.1191 56.7129 76.791Z" fill="white"/>
<path d="M6.47852 73.6055H15.2207V100H6.47852V73.6055Z" fill="white"/>
<path d="M84.4375 9.50195C77.5391 9.54453 71.2033 5.79297 67.5527 0H62.1992C58.5387 5.78867 52.2127 9.54648 45.3105 9.50195H36.2266V44.8535C41.1447 47.1352 44.4066 52.0979 44.3984 57.6309C44.3979 58.9992 44.3988 62.9404 44.3984 64.2578C45.6189 64.258 49.7115 64.2576 51.002 64.2578C55.8305 64.2 60.4027 67.4408 61.9688 71.9941H61.9707C62.6201 73.8096 62.8043 75.7805 62.5039 77.6953L62.3574 78.627L64.873 79.7891L83.1855 71.334C89.4648 68.4336 93.5215 62.0918 93.5215 55.1758V9.50195H84.4375ZM55.8809 25.457L61.2656 30.8418L73.8672 18.2402L78.0098 22.3848L61.2656 39.1289L51.7383 29.5996L55.8809 25.457ZM53.0781 57.0645V51.2051H76.6699V57.0645H53.0781Z" fill="white"/>
</svg>
