<svg width="100" height="100" viewBox="0 0 100 100" fill="none" xmlns="http://www.w3.org/2000/svg">
<path d="M50 26.9531C52.481 26.9531 54.4922 24.9419 54.4922 22.4609C54.4922 19.98 52.481 17.9688 50 17.9688C47.519 17.9688 45.5078 19.98 45.5078 22.4609C45.5078 24.9419 47.519 26.9531 50 26.9531Z" fill="black"/>
<path d="M52.9297 12.5332V1.95312H47.0703V12.5332C48 12.2559 48.9824 12.1094 50 12.1094C51.0176 12.1094 52 12.2559 52.9297 12.5332Z" fill="black"/>
<path d="M68.5547 88.7918C68.5547 84.0947 64.7334 80.2734 60.0363 80.2734H52.9297V32.3887C52 32.666 51.0176 32.8125 50 32.8125C48.9824 32.8125 48 32.666 47.0703 32.3887V80.2734H40.159C35.4619 80.2734 31.6406 84.0947 31.6406 88.7918V92.1875H25.1953V98.0469H75V92.1875H68.5547V88.7918Z" fill="black"/>
<path d="M36.1328 54.7852V51.8555H32.1465L22.2805 30.6311L22.2812 30.6309L40.6113 26.8203C39.9941 25.4941 39.6484 24.0176 39.6484 22.4609C39.6484 21.9707 39.6836 21.4863 39.75 21.0137L16.0293 25.9473L3.98633 51.8555H0V54.7852C0 64.7461 8.10547 72.8516 18.0664 72.8516C28.0273 72.8516 36.1328 64.7461 36.1328 54.7852ZM10.4473 51.8555L18.0662 35.4654L25.685 51.8555H10.4473Z" fill="black"/>
<path d="M96.0137 38.5742L83.6113 11.8926L58.8203 17.0488C59.791 18.625 60.3516 20.4785 60.3516 22.4609C60.3516 22.5449 60.3496 22.6309 60.3477 22.7148L76.817 19.2912L67.8535 38.5742H63.8672V41.5039C63.8672 51.4648 71.9727 59.5703 81.9336 59.5703C91.8945 59.5703 100 51.4648 100 41.5039V38.5742H96.0137ZM74.315 38.5742L81.934 22.1842L89.5527 38.5742H74.315Z" fill="black"/>
</svg>
