<svg width="100" height="96" viewBox="0 0 100 96" fill="none" xmlns="http://www.w3.org/2000/svg">
<path d="M30.9872 6.54339C30.2443 5.24732 32.2033 4.11105 32.947 5.40689L39.2714 16.4102C39.5839 16.9535 39.3986 17.649 38.8582 17.9629C38.3208 18.2725 37.627 18.0957 37.3125 17.5467L30.9872 6.54339ZM18.2027 20.2198L29.1545 26.573C29.6926 26.8828 30.3864 26.7055 30.7001 26.1568C31.0126 25.6115 30.8272 24.9181 30.286 24.6042L19.3341 18.2514C18.0443 17.5042 16.912 19.4724 18.2027 20.2198ZM51.1313 13.8256V1.12206C51.1313 -0.374476 48.8685 -0.373567 48.8685 1.12206V13.8256C48.8685 15.3224 51.1313 15.3233 51.1313 13.8256ZM70.2796 26.7251C70.4724 26.7251 70.6663 26.6753 70.8453 26.573L81.8003 20.2198C83.0888 19.4724 81.9587 17.5033 80.6678 18.2516L69.7139 24.6044C68.7099 25.1863 69.136 26.7251 70.2796 26.7251ZM26.0733 37.8055L18.0676 33.164C16.7948 32.4262 15.1424 32.8656 14.4052 34.1489L0.35805 58.5925C-0.379858 59.8765 0.0595831 61.5287 1.33808 62.2704L9.34373 66.9144C10.6177 67.6533 12.2682 67.2115 13.0061 65.9277L27.0555 41.4836C27.7901 40.2053 27.3479 38.5444 26.0733 37.8055ZM61.7082 18.115C62.097 18.115 62.4794 17.9104 62.688 17.5467L69.0124 6.54316C69.7571 5.24823 67.7982 4.11037 67.0526 5.40666L60.728 16.41C60.2897 17.1731 60.8466 18.115 61.7082 18.115ZM46.1251 87.8498L44.0412 90.8274C41.5691 94.3703 46.8829 98.1101 49.3525 94.5811L51.4364 91.6037C53.9069 88.073 48.599 84.316 46.1251 87.8498ZM53.2491 43.9094C48.8753 42.942 46.2909 43.3059 42.8342 46.1551C41.231 47.4764 39.409 49.3132 37.9178 50.7886L35.5586 53.1139L35.0958 62.8853C35.0657 63.5224 35.1436 64.3775 35.7353 64.7509C36.7733 65.4058 38.7964 64.5398 39.7308 64.0329C41.7089 62.9598 43.1662 58.8418 44.3388 56.6195C44.4318 56.4431 44.582 56.3015 44.7624 56.2179C48.1399 54.652 51.6873 52.5697 55.3683 54.7104L77.3267 67.4806L83.8509 64.1329L72.005 43.5187C65.6383 45.4309 59.6724 45.33 53.2491 43.9094ZM76.8368 69.3188L54.4511 56.3013C51.6439 54.6688 48.5952 56.4268 45.8789 57.7226C45.2942 58.1306 43.6794 63.9774 40.5986 65.649C38.9544 66.5409 36.5092 67.4088 34.7598 66.3043C33.5589 65.5463 33.2048 64.1509 33.2688 62.7989L33.7488 52.6634C33.7599 52.4302 33.8596 52.2088 34.0264 52.046L38.7437 47.4059L27.9829 43.5443L15.9795 64.4268L23.3189 73.632L25.8415 70.0332C27.6038 67.5185 30.6064 67.2101 32.8912 68.8226C33.978 69.5895 34.5303 70.4612 34.9646 71.6722L35.2042 71.4601C38.701 68.365 44.2252 71.7827 43.5405 76.1152L43.4963 76.3937L43.7758 76.3666C47.6027 75.9961 51.2438 80.283 48.6395 84.2555L48.427 84.5797L48.8131 84.5937C52.2822 84.7192 55.1576 88.406 53.3733 91.9273L53.2803 92.1112L58.6647 95.2586C62.3774 97.4287 65.6277 91.8025 61.9572 89.6368L55.9054 86.0966C54.8657 85.4886 55.7887 83.9034 56.8246 84.5096L64.7425 89.14C68.4539 91.3095 71.7081 85.6827 68.0347 83.5179L60.6205 79.1822C59.5834 78.5758 60.4981 76.9863 61.5399 77.5952L71.2997 83.3029C75.015 85.4798 78.2864 79.838 74.5683 77.6638L72.6033 76.516L65.3358 72.2652C64.2987 71.6586 65.2158 70.0691 66.2581 70.6787L73.5763 74.9585C77.288 77.1285 80.5551 71.4808 76.8368 69.3188ZM99.6418 58.5925L85.5944 34.1489C84.8563 32.8644 83.2051 32.4267 81.9332 33.164L73.9275 37.8055C72.6517 38.5451 72.2114 40.2065 72.9454 41.4834L86.9949 65.9274C87.7323 67.2106 89.3812 67.6538 90.6561 66.9142L98.6618 62.2702C99.9405 61.5287 100.38 59.8765 99.6418 58.5925ZM47.0343 83.3597C49.5069 79.8302 44.1955 76.0718 41.7232 79.6036L35.9125 87.9046C33.4421 91.4339 38.7523 95.1884 41.2256 91.6557L44.6434 86.7722L47.0343 83.3597ZM32.6502 74.8403C35.1175 71.3208 29.8135 67.5538 27.337 71.0887L23.178 77.0258C20.7067 80.5535 26.0126 84.3153 28.489 80.7794L32.6502 74.8403ZM35.8005 73.5322L29.9843 81.838L28.7513 83.597C26.2742 87.1311 31.5912 90.889 34.0644 87.3509L41.1122 77.2863C43.5857 73.7591 38.2762 69.9963 35.8005 73.5322Z" fill="white"/>
</svg>
