<svg width="100" height="100" viewBox="0 0 100 100" fill="none" xmlns="http://www.w3.org/2000/svg">
<g clip-path="url(#clip0_328_42)">
<path fill-rule="evenodd" clip-rule="evenodd" d="M7.25831 59.9558C8.30546 64.3704 10.0501 68.5869 12.4215 72.451L8.82719 80.5704L18.3654 90.1402L26.4557 86.5354C30.3078 88.9152 34.512 90.6656 38.9132 91.7162L42.0912 100H55.58L58.7592 91.7143C63.1592 90.6637 67.3619 88.9133 71.2132 86.534L79.3061 90.1402L88.8443 80.5708L85.3099 72.5866H84.6841C84.2853 72.5866 83.8911 72.5508 83.5049 72.4806L79.7484 73.1085C74.6073 73.9678 69.0145 74.8118 63.9068 73.3557C63.0118 73.1005 62.1513 72.7821 61.3217 72.4039C57.6287 74.4799 53.3706 75.665 48.8358 75.665C34.7066 75.665 23.2549 64.1755 23.2549 50C23.2549 35.824 34.7066 24.3348 48.8358 24.3348C53.3061 24.3348 57.5076 25.4862 61.1639 27.5075C64.18 25.208 66.9532 22.6487 66.9532 18.536V11.1554C64.3302 9.92211 61.5849 8.95883 58.7583 8.28399L55.5805 0H42.0914L38.913 8.2853C34.5124 9.33567 30.3091 11.0861 26.4578 13.4655L18.3658 9.85999L8.82741 19.4296L12.4217 27.5492C10.0503 31.4134 8.30567 35.6299 7.25853 40.0444L-1 43.2338V56.7671L7.25831 59.9558ZM56.0208 65.7324H45.6528V34.2678H56.0208V65.7324ZM77.9819 35.9378C77.9819 40.2979 80.9423 40.5609 73.2315 45.0038C72.4058 45.4799 72.1211 46.5374 72.5955 47.3658C73.07 48.1942 74.1241 48.4798 74.9497 48.0039C75.2686 47.8202 75.6384 47.5976 76.0404 47.3373C76.3184 48.6182 76.9622 49.7652 77.8552 50.6612C78.3012 51.1086 78.8095 51.4935 79.3656 51.8017C78.5027 52.9322 77.9886 54.3483 77.9883 55.8835C77.9886 57.7925 78.7876 59.5909 80.1967 60.8702C78.7878 62.1465 77.9883 63.9503 77.9886 65.8562C77.9886 67.2776 78.4291 68.5964 79.1786 69.6811C73.37 70.652 68.8821 71.162 64.853 70.0132C62.9938 69.4832 61.2325 68.6001 59.4844 67.2461V32.9959C61.0795 31.8599 62.7243 30.7311 64.2382 29.5066C67.6615 26.7377 70.4163 23.4786 70.4163 18.5365V8.98424C76.6754 8.98424 81.8355 14.1165 81.8355 20.4394V27.8489C81.5454 29.959 81.2108 29.9216 79.9491 31.1875C78.7354 32.4055 77.9819 34.0869 77.9819 35.9378ZM95.6612 39.1865H84.6836C82.9061 39.1865 81.4456 37.7213 81.4456 35.9376C81.4456 34.1592 82.9102 32.6822 84.6836 32.6822L95.6617 32.6825C97.4304 32.6825 98.9064 34.1629 98.9064 35.9374C98.9061 37.7219 97.4377 39.1865 95.6612 39.1865ZM97.7553 49.1662C92.7001 49.1662 87.6452 49.1594 82.59 49.1594C80.8124 49.1594 79.3518 47.6942 79.3518 45.9108C79.3518 44.1274 80.8124 42.6617 82.59 42.6617C87.6452 42.6617 92.7001 42.655 97.7553 42.655C99.5292 42.6552 101 44.1324 101 45.911C101 47.6855 99.524 49.1662 97.7553 49.1662ZM94.2675 59.1324C91.073 59.1324 87.8818 59.1289 84.6838 59.1391C82.9106 59.1391 81.4389 57.6624 81.4387 55.8833C81.4389 54.1038 82.9113 52.6346 84.6838 52.6346H94.2675C96.0451 52.6346 97.5055 54.0999 97.5055 55.8833C97.5055 57.6667 96.0453 59.1324 94.2675 59.1324ZM84.6836 69.1116C82.9147 69.1116 81.4389 67.6305 81.4389 65.8558C81.4389 64.146 82.814 62.6966 84.513 62.6052C86.7348 62.6608 89.0638 62.6054 91.3031 62.6074C93.0809 62.6074 94.5478 64.0732 94.5478 65.8567C94.5478 67.6355 93.0759 69.1116 91.3031 69.1116H84.6836ZM85.2993 27.4373V20.4396C85.2993 18.45 84.9025 16.5163 84.1636 14.7337L88.8441 19.4298L85.2993 27.4373Z" fill="black"/>
</g>
<defs>
<clipPath id="clip0_328_42">
<rect width="100" height="100" fill="white"/>
</clipPath>
</defs>
</svg>
