<svg width="46" height="40" viewBox="0 0 46 40" fill="none" xmlns="http://www.w3.org/2000/svg">
<g clip-path="url(#clip0_337_176)">
<path d="M11.3768 0.12333L34.3768 0L46 19.8561L34.5821 39.8767L11.5821 40L0 20.1028L11.3768 0.12333Z" fill="#F2F2F2"/>
</g>
<g clip-path="url(#clip1_337_176)">
<path d="M32.921 20.8051H32.2123V14.7825C32.2123 14.1955 31.7363 13.7197 31.1493 13.7197H26.8972C26.3101 13.7197 25.8341 14.1955 25.8341 14.7825V20.8051H20.8733V20.0965H24.0624C24.6495 20.0965 25.1254 19.6207 25.1254 19.0337V10.5313C25.1254 9.94434 24.6495 9.46851 24.0624 9.46851H13.4322C12.8451 9.46851 12.3691 9.94434 12.3691 10.5313V19.0337C12.3691 19.6207 12.8451 20.0965 13.4322 20.0965H16.6212V20.8051H13.0778C12.6864 20.8051 12.3691 21.1223 12.3691 21.5136V22.9307C12.3691 23.322 12.6864 23.6392 13.0778 23.6392H13.1558L14.7259 29.92C14.8444 30.393 15.2696 30.7247 15.7574 30.7245H30.2414C30.7292 30.7246 31.1545 30.3928 31.2729 29.9196L32.843 23.6392H32.921C33.3124 23.6392 33.6296 23.322 33.6296 22.9307V21.5136C33.6296 21.1223 33.3124 20.8051 32.921 20.8051ZM29.9867 14.4282L29.8095 15.1368H28.2366L28.0594 14.4282H29.9867ZM26.5428 14.7825C26.5428 14.5869 26.7015 14.4282 26.8972 14.4282H27.3294L27.5495 15.3082C27.6282 15.6238 27.9117 15.8452 28.2369 15.8453H29.8095C30.1348 15.8452 30.4182 15.6238 30.4969 15.3082L30.717 14.4282H31.1493C31.3449 14.4282 31.5036 14.5869 31.5036 14.7825V20.8051H28.5859L29.1922 19.795L30.3548 20.0859C30.3829 20.0929 30.4117 20.0964 30.4406 20.0965C30.6193 20.0961 30.7698 19.9627 30.7915 19.7853C30.8133 19.6079 30.6994 19.4421 30.526 19.3986L29.3775 19.1117V18.4719L29.9824 17.8671C30.1167 17.7281 30.1148 17.5072 29.9781 17.3705C29.8414 17.2338 29.6204 17.2319 29.4814 17.3662L28.9899 17.8576L27.8184 16.979C27.6619 16.8616 27.4398 16.8933 27.3224 17.0498C27.2049 17.2063 27.2367 17.4284 27.3932 17.5458L28.6689 18.5023V19.2899L27.7596 20.8051H26.5428V14.7825ZM13.0778 19.0337V18.3252H13.7865C13.9822 18.3252 14.1408 18.1666 14.1408 17.9709C14.1408 17.7753 13.9822 17.6167 13.7865 17.6167H13.0778V10.5313C13.0778 10.3357 13.2365 10.177 13.4322 10.177H24.0624C24.2581 10.177 24.4168 10.3357 24.4168 10.5313V17.6167H15.2039C15.0082 17.6167 14.8495 17.7753 14.8495 17.9709C14.8495 18.1666 15.0082 18.3252 15.2039 18.3252H24.4168V19.0337C24.4168 19.2294 24.2581 19.388 24.0624 19.388H13.4322C13.2365 19.388 13.0778 19.2294 13.0778 19.0337ZM17.3299 20.0965H20.1647V20.8051H17.3299V20.0965ZM30.5855 29.7475C30.5461 29.9054 30.4042 30.0161 30.2414 30.016H15.7574C15.5947 30.0162 15.4528 29.9056 15.4133 29.7478L13.8857 23.6392H32.1131L30.5855 29.7475ZM13.0778 22.9307V21.5136H32.921V22.9307H13.0778Z" fill="black"/>
<path d="M16.5469 12.679L18.1095 13.7198L17.6135 14.0521C17.457 14.1564 17.3482 14.3184 17.3109 14.5027L16.9827 16.1288C16.9639 16.2209 16.9825 16.3167 17.0343 16.3951C17.0861 16.4735 17.167 16.5281 17.2591 16.5469C17.2824 16.5517 17.3062 16.5541 17.33 16.5539C17.4983 16.5538 17.6432 16.4354 17.6769 16.2705L18.0032 14.6409L18.5808 14.2558L19.0663 15.4692C19.1426 15.6639 19.3015 15.8147 19.5 15.8808L20.4071 16.183C20.5274 16.223 20.6598 16.1958 20.7546 16.1117C20.8494 16.0276 20.8921 15.8993 20.8666 15.7751C20.8411 15.651 20.7513 15.5499 20.631 15.5099L19.7243 15.2077L19.208 13.9171L20.4776 13.4095L21.2416 13.9189C21.4231 14.0411 21.6513 14.0715 21.8585 14.0011L22.7571 13.7014C22.943 13.6396 23.0436 13.4388 22.9817 13.2529C22.9199 13.067 22.7191 12.9664 22.5331 13.0283L21.6342 13.3273L20.8709 12.82C20.6768 12.6905 20.4314 12.665 20.2147 12.7516L19.2225 13.148L19.4206 12.161L20.3617 11.5336C20.5246 11.425 20.5685 11.205 20.4599 11.0423C20.3513 10.8795 20.1312 10.8355 19.9684 10.9441L19.0284 11.5712C18.8719 11.6755 18.7631 11.8375 18.7257 12.0218L18.5039 13.1307L16.9402 12.0902C16.7838 11.9866 16.593 11.9484 16.4087 11.9839L14.7787 12.3098C14.5869 12.349 14.4632 12.5361 14.5023 12.7279C14.5415 12.9196 14.7287 13.0433 14.9205 13.0042L16.5469 12.679Z" fill="black"/>
</g>
<defs>
<clipPath id="clip0_337_176">
<rect width="46" height="40" fill="white"/>
</clipPath>
<clipPath id="clip1_337_176">
<rect width="21.2605" height="21.256" fill="white" transform="translate(12.3691 9.46851)"/>
</clipPath>
</defs>
</svg>
